<svg xmlns="http://www.w3.org/2000/svg" version="1.1" height="500" width="500">
	<ellipse transform="rotate(120,60,60)" cx="40" cy="40" rx="40" ry="60" fill="url(#body)" stroke="black" stroke-width="2"/>
	<radialGradient id="body" fx="0.2" fy="0.05">
  		<stop offset="0" stop-color="black"/>
  		<stop offset="0.9" stop-color="red"/>
   		<stop offset="1" stop-color="purple"/> 		
	</radialGradient>
	<rect x="5" y="20" height="50" width="40" fill="#d00000" stroke="black" stroke-width="2" />
	<g id="eye">
		<circle cx="12" cy="20" r="10" fill="white" stroke="black" stroke-width="2" opacity="0.9"/>
	</g>
	<use href="#eye" transform="translate(15,0)"/>
	<text x="10" y="140" font-size="20">SVG Skeleton</text>
	<g id="leg">
		<line x1="100" y1="90" x2="250" y2="150" stroke="black" stroke-width="6" stroke-linecap="round"/> 
	</g>
	<use href="#leg" transform="translate(10,-30) scale(1.1,0.9)"/>
	<path transform="scale(0.5) translate(300,-100)" fill="#7cfcff" fill-opacity="1" stroke="#000000" stroke-width="3" stroke-linecap="butt" stroke-linejoin="miter"
		stroke-miterlimit="4" d="m 114,159 c 14,-36 42,-39 75,-27 69,-41 76,-9 71,35 0,20 65,40 -18,61 -25,15 -43,66 -87,-3 -77,1 -86,-23 -41,-67 z" />
	<image href="chip.jpg" x="10" y="39" width="30" height="30" opacity="0.8"/>
</svg>
